<svg xmlns="http://www.w3.org/2000/svg" viewBox="0 0 24 24" id="7-up"><path fill="#388E3C" d="m10.332 3.358-8.571 2.98L0 10.465a2.557 2.557 0 0 1 1.042-.661l5.33-1.842L2.666 19.73c-.145.466-.246.902-.554 1.352l5.011-1.759 2.749-9.322 1.63-5.521c.266-.904-.167-1.472-1.17-1.122z"></path><circle cx="10" cy="14" r="4" fill="#F44336"></circle><path fill="#388E3C" d="m17.05 4.738-1.673.588a.25.25 0 0 0-.145.336c.095.216.105.431.105.574v5.387c0 .609-.416.974-.818.975-.312 0-.646-.241-.648-.77l-.027-5.661a.25.25 0 0 0-.33-.236l-1.624.549a.25.25 0 0 0-.151.331c.074.182.085.368.086.531-.102 2.651-.106 5.684.082 6.348.011.04.031.076.061.105.226.235.653.315 1.116.315.647 0 1.364-.157 1.69-.265h.001c1.472-.493 2.598-.989 2.6-2.494l.01-6.379a.253.253 0 0 0-.105-.205.267.267 0 0 0-.23-.029zm5.308-1.253c-.491-.35-1.121-.413-1.773-.177l-2.374.861a.251.251 0 0 0-.149.325c.052.132.078.282.078.447l.022 6.951c0 .091-.005.18-.015.266a.252.252 0 0 0 .329.264l1.512-.518a.25.25 0 0 0 .156-.315 1.444 1.444 0 0 1-.064-.457l.005-1.618 1.677-.603c1.335-.483 1.463-1.762 1.486-3.258.017-.961-.308-1.752-.89-2.168zm-.925 2.757c.012.902-.061 1.798-1.055 1.991l-.296.058-.021-3.979.163-.061c.257-.095.492-.074.684.059.347.24.518.826.522 1.793l.003.139z"></path></svg>