<svg xmlns="http://www.w3.org/2000/svg" version="1.1" xmlns:xlink="http://www.w3.org/1999/xlink" xmlns:svgjs="http://svgjs.dev/svgjs" width="2000" height="606" viewBox="0 0 2000 606"><g transform="matrix(1,0,0,1,-1.2121212121212466,-0.0739719865493953)"><svg viewBox="0 0 396 120" data-background-color="#240a34" preserveAspectRatio="xMidYMid meet" height="606" width="2000" xmlns="http://www.w3.org/2000/svg" xmlns:xlink="http://www.w3.org/1999/xlink"><g id="tight-bounds" transform="matrix(1,0,0,1,0.2400000000000091,0.014647918128588344)"><svg viewBox="0 0 395.52 119.9703834865189" height="119.9703834865189" width="395.52"><g><svg viewBox="0 0 597.4271950773549 181.21351562172737" height="119.9703834865189" width="395.52"><g transform="matrix(1,0,0,1,201.90719507735494,53.43858625129917)"><svg viewBox="0 0 395.52 74.33634311912903" height="74.33634311912903" width="395.52"><g id="textblocktransform"><svg viewBox="0 0 395.52 74.33634311912903" height="74.33634311912903" width="395.52" id="textblock"><g><rect width="131.57289335836148" height="3.9524927760248683" y="62.27955852563542" fill="#ffffff" data-fill-palette-color="tertiary"></rect><rect width="131.57289335836148" height="3.9524927760248683" y="62.27955852563542" x="263.94710664163847" fill="#ffffff" data-fill-palette-color="tertiary"></rect></g><g><svg viewBox="0 0 395.52 43.828426980352894" height="43.828426980352894" width="395.52"><g transform="matrix(1,0,0,1,0,0)"><svg width="395.52" viewBox="4.32 -34.99 390.16 43.24" height="43.828426980352894" data-palette-color="#fa9d9d"><path d="M24.61-22.17L24.61-22.17 23.61-22.19Q23.07-22.24 22.24-22.24L22.24-22.24 16.77-22.24 16.77 0 4.32 0 4.32-34.55 23.71-34.55 26.12-34.62 26.56-34.62Q28.39-34.62 28.39-33.54L28.39-33.54Q28.39-33.13 28.06-32.78 27.73-32.42 27.34-32.42L27.34-32.42Q26.71-32.42 26.12-32.54L26.12-32.54Q25-32.79 23.19-32.79L23.19-32.79 16.77-32.79 16.77-24 21.68-24Q21.68-24 24.71-24.12L24.71-24.12Q26.03-24.12 26.03-23.14 26.03-22.17 24.61-22.17ZM30.25-13.18L30.25-13.18Q30.25-16.11 31.31-18.52 32.37-20.92 34.23-22.71L34.23-22.71Q38.23-26.51 44.28-26.51L44.28-26.51Q50.46-26.51 54.34-22.56L54.34-22.56Q58.05-18.82 58.05-13.11L58.05-13.11Q58.05-7.37 54.25-3.52L54.25-3.52Q50.31 0.46 44.19 0.46L44.19 0.46Q38.21 0.46 34.27-3.32L34.27-3.32Q30.25-7.23 30.25-13.18ZM43.5-24.71L43.5-1.37Q43.7-1.34 43.89-1.34L43.89-1.34 44.24-1.34Q49.17-1.34 52.51-4.39L52.51-4.39Q56.08-7.69 56.08-13.04L56.08-13.04Q56.08-18.26 52.73-21.51L52.73-21.51Q49.44-24.73 44.21-24.73L44.21-24.73 43.85-24.73Q43.67-24.73 43.5-24.71L43.5-24.71ZM62.06-13.18L62.06-13.18Q62.06-16.11 63.12-18.52 64.18-20.92 66.04-22.71L66.04-22.71Q70.04-26.51 76.09-26.51L76.09-26.51Q82.27-26.51 86.15-22.56L86.15-22.56Q89.86-18.82 89.86-13.11L89.86-13.11Q89.86-7.37 86.05-3.52L86.05-3.52Q82.12 0.46 76 0.46L76 0.46Q70.01 0.46 66.08-3.32L66.08-3.32Q62.06-7.23 62.06-13.18ZM75.31-24.71L75.31-1.37Q75.51-1.34 75.7-1.34L75.7-1.34 76.04-1.34Q80.98-1.34 84.32-4.39L84.32-4.39Q87.89-7.69 87.89-13.04L87.89-13.04Q87.89-18.26 84.54-21.51L84.54-21.51Q81.25-24.73 76.02-24.73L76.02-24.73 75.65-24.73Q75.48-24.73 75.31-24.71L75.31-24.71ZM114.59 0L114.59-1.34Q111.54 0.46 108.13 0.46 104.73 0.46 102.15-0.55 99.58-1.56 97.75-3.37L97.75-3.37Q93.94-7.15 93.94-13.21L93.94-13.21Q93.94-18.82 97.7-22.56L97.7-22.56Q101.7-26.51 108.15-26.51L108.15-26.51Q111.56-26.51 114.59-25.02L114.59-25.02 114.59-34.55 124.65-34.55 124.65 0 114.59 0ZM107.66-24.73L107.66-24.73Q106.9-24.73 106.22-24.63L106.22-24.63 106.22-1.49Q107.1-1.34 108.12-1.34L108.12-1.34Q111.52-1.34 114.59-3.49L114.59-3.49 114.59-22.85Q111.3-24.73 107.66-24.73ZM171.86-5.79L171.86-5.79Q172.86-5.79 172.86-4.66L172.86-4.66Q172.86-3.74 171.45-2.81L171.45-2.81Q168.81-1.07 167-0.54L167-0.54Q163.61 0.46 159.88 0.46 156.14 0.46 152.69-0.87 149.23-2.2 146.79-4.59L146.79-4.59Q141.69-9.62 141.69-17.58L141.69-17.58Q141.69-21.41 143.13-24.62 144.57-27.83 147.11-30.13L147.11-30.13Q152.48-34.99 160.61-34.99L160.61-34.99Q165.17-34.99 168.64-33.42L168.64-33.42Q172.33-31.79 172.33-30.64L172.33-30.64Q172.33-30.18 172.02-29.83 171.72-29.49 171.33-29.49L171.33-29.49Q170.54-29.49 169.91-30.19 169.27-30.88 168.19-31.45 167.1-32.01 165.81-32.42L165.81-32.42Q163.17-33.23 161.01-33.23 158.85-33.23 157.43-32.93L157.43-32.93 157.43-1.64Q159.14-1.34 160.46-1.34 161.78-1.34 163.15-1.51 164.51-1.68 165.83-2.08L165.83-2.08Q168.79-2.95 170.28-4.66L170.28-4.66Q170.81-5.3 171.13-5.54 171.45-5.79 171.86-5.79ZM176.57-13.18L176.57-13.18Q176.57-16.11 177.63-18.52 178.7-20.92 180.55-22.71L180.55-22.71Q184.56-26.51 190.61-26.51L190.61-26.51Q196.79-26.51 200.67-22.56L200.67-22.56Q204.38-18.82 204.38-13.11L204.38-13.11Q204.38-7.37 200.57-3.52L200.57-3.52Q196.64 0.46 190.51 0.46L190.51 0.46Q184.53 0.46 180.6-3.32L180.6-3.32Q176.57-7.23 176.57-13.18ZM189.83-24.71L189.83-1.37Q190.02-1.34 190.22-1.34L190.22-1.34 190.56-1.34Q195.49-1.34 198.84-4.39L198.84-4.39Q202.4-7.69 202.4-13.04L202.4-13.04Q202.4-18.26 199.06-21.51L199.06-21.51Q195.76-24.73 190.54-24.73L190.54-24.73 190.17-24.73Q190-24.73 189.83-24.71L189.83-24.71ZM238.9-19.34L238.9-19.34Q238.95-18.75 238.95-18.16L238.95-18.16 238.95 0 228.47 0 228.47-23.68Q228.21-23.8 227.84-23.8L227.84-23.8 227.06-23.8Q225.15-23.8 222.61-21.19L222.61-21.19Q221.83-20.39 221.13-19.41L221.13-19.41 221.13 0 210.63 0 210.63-26.07 221.13-26.07 221.13-22.14Q225.25-26.51 230.35-26.51L230.35-26.51Q236.95-26.51 238.48-21.63L238.48-21.63Q240.58-24.05 243.11-25.28 245.64-26.51 248.2-26.51L248.2-26.51Q252.57-26.51 254.67-24.44 256.77-22.36 256.77-18.16L256.77-18.16 256.77 0 246.3 0 246.3-23.71Q246.08-23.8 245.2-23.8 244.32-23.8 243.57-23.47 242.83-23.14 242.05-22.56L242.05-22.56Q240.34-21.31 238.9-19.34ZM281.35 0.46L281.35 0.46Q277.96 0.46 274.78-1.07L274.78-1.07 274.78 7.81 264.75 7.81 264.75-26.07 274.78-26.07 274.78-24.73Q277.98-26.51 281.33-26.51 284.67-26.51 287.24-25.51 289.8-24.51 291.63-22.75L291.63-22.75Q295.41-19.04 295.41-13.26L295.41-13.26Q295.41-7.42 291.68-3.56L291.68-3.56Q287.82 0.46 281.35 0.46ZM281.28-24.73L281.28-24.73Q277.67-24.73 274.78-22.73L274.78-22.73 274.78-3.25Q278.08-1.34 281.96-1.34L281.96-1.34 282.6-1.34Q282.89-1.34 283.16-1.39L283.16-1.39 283.16-24.58Q282.23-24.73 281.28-24.73ZM318 0L318-1.61Q314.87 0.46 311.06 0.46L311.06 0.46Q306.01 0.46 302.96-2.08L302.96-2.08Q299.78-4.69 299.78-9.33L299.78-9.33Q299.78-13.43 302.93-16.06L302.93-16.06Q306.15-18.73 311.4-18.73L311.4-18.73Q314.92-18.73 318-17.38L318-17.38 318-24.1Q315.77-24.73 314.08-24.73 312.38-24.73 311.21-24.58 310.04-24.44 308.99-24.15L308.99-24.15Q306.72-23.51 305.54-22.44L305.54-22.44Q304.86-21.8 304.3-21.8 303.74-21.8 303.44-22.08 303.15-22.36 303.15-22.71 303.15-23.05 303.27-23.33 303.4-23.61 303.74-23.9L303.74-23.9Q304.47-24.54 306.18-25.17L306.18-25.17Q309.72-26.51 313.28-26.51L313.28-26.51Q324.12-26.51 327.13-21.34L327.13-21.34Q328.44-19.04 328.44-15.31L328.44-15.31 328.44 0 318 0ZM318-3.71L318-15.48Q314.92-16.97 311.87-16.97L311.87-16.97Q311.38-16.97 310.94-16.89L310.94-16.89 310.94-1.37Q311.06-1.34 311.21-1.34 311.35-1.34 311.5-1.34L311.5-1.34Q314.85-1.34 318-3.71L318-3.71ZM354.15 0L354.15-23.41Q353.54-23.8 352.83-23.8 352.12-23.8 351.37-23.47 350.61-23.14 349.78-22.56L349.78-22.56Q348.05-21.31 346.58-19.24L346.58-19.24 346.58 0 336.08 0 336.08-26.07 346.58-26.07 346.58-21.9Q350.76-26.51 356.03-26.51L356.03-26.51Q364.65-26.51 364.65-18.16L364.65-18.16 364.65 0 354.15 0ZM377.17 5.76L377.17 5.76Q378.66 5.3 379.24 4.57L379.24 4.57Q380.08 3.59 381.25 1.05L381.25 1.05 381.81-0.24 368.5-26.07 379.61-26.07 386.54-11.33 390.55-20.68Q391.65-23.24 391.99-24.58 392.33-25.93 392.66-26.22 392.99-26.51 393.47-26.51 393.94-26.51 394.21-26.22 394.48-25.93 394.48-25.63 394.48-25.34 394.42-25.01 394.36-24.68 394.17-24.13 393.99-23.58 393.65-22.75L393.65-22.75 383.52 0.73Q381.71 4.98 380.05 6.71L380.05 6.71Q378.63 8.25 377.18 8.25 375.73 8.25 375.73 7.24 375.73 6.23 377.17 5.76Z" opacity="1" transform="matrix(1,0,0,1,0,0)" fill="#ffffff" class="wordmark-text-0" data-fill-palette-color="primary" id="text-0"></path></svg></g></svg></g><g transform="matrix(1,0,0,1,131.57289335836148,54.17526670816669)"><svg viewBox="0 0 132.37421328327702 20.161076410962334" height="20.161076410962334" width="132.37421328327702"><g transform="matrix(1,0,0,1,7.999999999999993,0)"><svg width="116.37421328327703" viewBox="4.7 -35.5 207.78 36.00192307692308" height="20.161076410962334" data-palette-color="#e1bc00"><path d="M6.2-35L6.2-35 24.55-35Q25.15-35 25.6-34.58 26.05-34.15 26.05-33.5L26.05-33.5Q26.05-32.85 25.6-32.45 25.15-32.05 24.55-32.05L24.55-32.05 7.35-32.05 7.85-32.9 7.85-18.85 7.3-19.5 22.3-19.5Q22.9-19.5 23.35-19.05 23.8-18.6 23.8-18L23.8-18Q23.8-17.35 23.35-16.95 22.9-16.55 22.3-16.55L22.3-16.55 7.4-16.55 7.85-17.05 7.85-2.65 7.6-2.95 24.55-2.95Q25.15-2.95 25.6-2.5 26.05-2.05 26.05-1.45L26.05-1.45Q26.05-0.8 25.6-0.4 25.15 0 24.55 0L24.55 0 6.2 0Q5.6 0 5.15-0.45 4.7-0.9 4.7-1.5L4.7-1.5 4.7-33.5Q4.7-34.1 5.15-34.55 5.6-35 6.2-35ZM42.75 0.5L42.75 0.5Q38.95 0.55 36.15-0.7 33.35-1.95 30.8-4.45L30.8-4.45Q30.55-4.65 30.37-4.95 30.2-5.25 30.2-5.65L30.2-5.65Q30.2-6.25 30.67-6.75 31.15-7.25 31.75-7.25L31.75-7.25Q32.35-7.25 32.85-6.75L32.85-6.75Q34.8-4.65 37.27-3.55 39.75-2.45 42.6-2.45L42.6-2.45Q45-2.45 46.87-3.2 48.75-3.95 49.85-5.35 50.95-6.75 50.95-8.6L50.95-8.6Q50.95-10.9 49.7-12.33 48.45-13.75 46.4-14.68 44.35-15.6 41.85-16.35L41.85-16.35Q39.8-16.95 37.95-17.73 36.1-18.5 34.65-19.63 33.2-20.75 32.4-22.4 31.6-24.05 31.6-26.4L31.6-26.4Q31.6-29.05 33-31.1 34.4-33.15 36.97-34.33 39.55-35.5 42.95-35.5L42.95-35.5Q45.9-35.5 48.62-34.5 51.35-33.5 52.95-31.55L52.95-31.55Q53.7-30.75 53.7-30.1L53.7-30.1Q53.7-29.6 53.2-29.1 52.7-28.6 52.1-28.6L52.1-28.6Q51.6-28.6 51.25-28.95L51.25-28.95Q50.4-30 49.1-30.83 47.8-31.65 46.22-32.1 44.65-32.55 42.95-32.55L42.95-32.55Q40.6-32.55 38.72-31.83 36.85-31.1 35.77-29.75 34.7-28.4 34.7-26.5L34.7-26.5Q34.7-24.4 35.9-23.05 37.1-21.7 39.05-20.83 41-19.95 43.2-19.2L43.2-19.2Q45.35-18.6 47.32-17.82 49.3-17.05 50.82-15.9 52.35-14.75 53.22-13 54.1-11.25 54.1-8.6L54.1-8.6Q54.1-6.05 52.65-4 51.2-1.95 48.67-0.75 46.15 0.45 42.75 0.5ZM71.59 0L71.59 0Q70.9 0 70.47-0.45 70.05-0.9 70.05-1.5L70.05-1.5 70.05-33.35 73.15-33.35 73.15-1.5Q73.15-0.9 72.7-0.45 72.25 0 71.59 0ZM83.5-32.15L59.7-32.15Q59.1-32.15 58.65-32.55 58.2-32.95 58.2-33.6L58.2-33.6Q58.2-34.2 58.65-34.6 59.1-35 59.7-35L59.7-35 83.5-35Q84.09-35 84.55-34.6 85-34.2 85-33.55L85-33.55Q85-32.9 84.55-32.52 84.09-32.15 83.5-32.15L83.5-32.15ZM108.59-2.9L124.99-2.9Q125.59-2.9 126.02-2.48 126.44-2.05 126.44-1.45L126.44-1.45Q126.44-0.8 126.02-0.4 125.59 0 124.99 0L124.99 0 106.24 0Q105.59 0 105.12-0.38 104.64-0.75 104.64-1.5L104.64-1.5Q104.64-2.05 105.04-2.55L105.04-2.55 116.59-15.3Q119.29-18.2 120.69-20.6 122.09-23 122.09-25.35L122.09-25.35Q122.09-27.6 121.19-29.23 120.29-30.85 118.54-31.75 116.79-32.65 114.34-32.65L114.34-32.65Q112.04-32.65 110.07-31.53 108.09-30.4 107.09-27.9L107.09-27.9Q106.89-27.55 106.57-27.28 106.24-27 105.79-27L105.79-27Q105.24-27 104.74-27.4 104.24-27.8 104.24-28.3L104.24-28.3Q104.24-28.65 104.44-29 104.64-29.35 104.94-29.8L104.94-29.8Q106.29-32.6 108.92-34.05 111.54-35.5 114.54-35.5L114.54-35.5Q117.99-35.5 120.37-34.23 122.74-32.95 124.02-30.73 125.29-28.5 125.29-25.55L125.29-25.55Q125.29-23.75 124.64-21.88 123.99-20 122.59-17.9 121.19-15.8 118.84-13.25L118.84-13.25 109.09-2.3 108.59-2.9ZM143.54 0.5L143.54 0.5Q139.54 0.5 136.84-1.9 134.14-4.3 132.79-8.38 131.44-12.45 131.44-17.5L131.44-17.5Q131.44-22.6 132.79-26.68 134.14-30.75 136.84-33.13 139.54-35.5 143.54-35.5L143.54-35.5Q147.64-35.5 150.31-33.13 152.99-30.75 154.34-26.68 155.69-22.6 155.69-17.5L155.69-17.5Q155.69-12.45 154.34-8.38 152.99-4.3 150.31-1.9 147.64 0.5 143.54 0.5ZM143.54-2.6L143.54-2.6Q146.49-2.6 148.46-4.45 150.44-6.3 151.46-9.68 152.49-13.05 152.49-17.5L152.49-17.5Q152.49-22 151.46-25.38 150.44-28.75 148.46-30.6 146.49-32.45 143.54-32.45L143.54-32.45Q140.64-32.45 138.66-30.6 136.69-28.75 135.66-25.38 134.64-22 134.64-17.5L134.64-17.5Q134.64-13.05 135.66-9.68 136.69-6.3 138.66-4.45 140.64-2.6 143.54-2.6ZM166.69-2.9L183.09-2.9Q183.69-2.9 184.11-2.48 184.54-2.05 184.54-1.45L184.54-1.45Q184.54-0.8 184.11-0.4 183.69 0 183.09 0L183.09 0 164.34 0Q163.69 0 163.21-0.38 162.74-0.75 162.74-1.5L162.74-1.5Q162.74-2.05 163.14-2.55L163.14-2.55 174.69-15.3Q177.39-18.2 178.79-20.6 180.19-23 180.19-25.35L180.19-25.35Q180.19-27.6 179.29-29.23 178.39-30.85 176.64-31.75 174.89-32.65 172.44-32.65L172.44-32.65Q170.14-32.65 168.16-31.53 166.19-30.4 165.19-27.9L165.19-27.9Q164.99-27.55 164.66-27.28 164.34-27 163.89-27L163.89-27Q163.34-27 162.84-27.4 162.34-27.8 162.34-28.3L162.34-28.3Q162.34-28.65 162.54-29 162.74-29.35 163.04-29.8L163.04-29.8Q164.39-32.6 167.01-34.05 169.64-35.5 172.64-35.5L172.64-35.5Q176.09-35.5 178.46-34.23 180.84-32.95 182.11-30.73 183.39-28.5 183.39-25.55L183.39-25.55Q183.39-23.75 182.74-21.88 182.09-20 180.69-17.9 179.29-15.8 176.94-13.25L176.94-13.25 167.19-2.3 166.69-2.9ZM206.13 0L206.13 0Q205.48 0 205.08-0.45 204.68-0.9 204.68-1.5L204.68-1.5 204.68-30.85 205.33-30.45 192.18-13.05 192.03-13.6 211.03-13.6Q211.63-13.6 212.06-13.2 212.48-12.8 212.48-12.2L212.48-12.2Q212.48-11.6 212.06-11.2 211.63-10.8 211.03-10.8L211.03-10.8 189.98-10.8Q189.38-10.8 188.93-11.28 188.48-11.75 188.48-12.35L188.48-12.35Q188.48-12.9 188.83-13.35L188.83-13.35 204.93-34.4Q205.18-34.75 205.56-34.88 205.93-35 206.18-35L206.18-35Q206.83-35 207.26-34.55 207.68-34.1 207.68-33.5L207.68-33.5 207.68-1.5Q207.68-0.9 207.23-0.45 206.78 0 206.13 0Z" opacity="1" transform="matrix(1,0,0,1,0,0)" fill="#ffffff" class="slogan-text-1" data-fill-palette-color="secondary" id="text-1"></path></svg></g></svg></g></svg></g></svg></g><g><svg viewBox="0 0 181.21351562172737 181.21351562172737" height="181.21351562172737" width="181.21351562172737"><g><svg></svg></g><g id="icon-0"><svg viewBox="0 0 181.21351562172737 181.21351562172737" height="181.21351562172737" width="181.21351562172737"><g><path d="M0 90.607c0-50.041 40.566-90.607 90.607-90.607 50.041 0 90.607 40.566 90.607 90.607 0 50.041-40.566 90.607-90.607 90.607-50.041 0-90.607-40.566-90.607-90.607zM90.607 177.261c47.858 0 86.654-38.796 86.654-86.654 0-47.858-38.796-86.654-86.654-86.655-47.858 0-86.654 38.796-86.655 86.655 0 47.858 38.796 86.654 86.655 86.654z" data-fill-palette-color="tertiary" fill="#ffffff" stroke="transparent"></path></g><g transform="matrix(1,0,0,1,37.830217155922995,37.97489299552534)"><svg viewBox="0 0 105.55308130988138 105.26372963067669" height="105.26372963067669" width="105.55308130988138"><g><svg xmlns="http://www.w3.org/2000/svg" xmlns:xlink="http://www.w3.org/1999/xlink" version="1.1" x="0" y="0" viewBox="10.603 10.71 78.795 78.57900000000001" enable-background="new 0 0 100 100" xml:space="preserve" height="105.26372963067669" width="105.55308130988138" class="icon-dxe-0" data-fill-palette-color="accent" id="dxe-0"><path d="M79.236 48.382L79.894 48.322C79.106 39.623 71.023 32.886 61.43 32.886L61.168 32.887C56.553 32.958 52.241 34.54 48.895 37.333A20 20 0 0 0 40.74 35.698C36.807 35.751 33.167 36.891 30.179 38.828L23.373 10.71 20.457 11.416 27.588 40.876A16.8 16.8 0 0 0 24.349 45.07L13.462 21.673 10.742 22.939 22.581 48.382H10.603V49.882C10.603 71.611 28.274 89.289 49.996 89.289 71.723 89.289 89.398 71.611 89.398 49.882V48.382zM61.212 35.888L61.436 35.887C69.403 35.887 76.114 41.325 76.876 48.382H58.938C57.846 44.488 55.26 41.158 51.787 38.888 54.453 37.003 57.726 35.942 61.212 35.888M40.779 38.7C47.774 38.605 53.792 42.682 55.799 48.383H26.172C28.171 42.781 34.059 38.791 40.779 38.7M49.995 86.29C30.43 86.29 14.422 70.766 13.633 51.383H56.469L56.471 51.395 56.601 51.383H86.368C85.578 70.765 69.564 86.29 49.995 86.29" fill="#ffffff" data-fill-palette-color="accent"></path></svg></g></svg></g></svg></g></svg></g></svg></g><defs></defs></svg><rect width="395.52" height="119.9703834865189" fill="none" stroke="none" visibility="hidden"></rect></g></svg></g></svg>